# xmcd
#
# Track frame offsets:
#	150
#	21790
#	49470
#	66206
#	91743
#	111028
#	122428
#	141322
#	159322
#	175334
#	189729
#	208112
#
# Disc length: 3070 seconds
#
# Revision: 1
# Processed by: cddbd v1.5.2PL0 Copyright (c) Steve Scherf et al.
# Submitted via: audiograbber 1.83.01
#
DISCID=a70bfc0c
DTITLE=CMH Records - I-35 Texas Country
DYEAR=2006
DGENRE=Country
TTITLE0=Blake Powers and Fallon Franklin - Songs About Texas
TTITLE1=Carter Falco - Lovin' County
TTITLE2=The Long Goners - Does Fort Worth Ever Cross Your Mind?
TTITLE3=Blake Powers - Sunset Blvd.
TTITLE4=The Mother Truckers - When I Get My Wings
TTITLE5=WT Special - Sick, Sober, and Sorry
TTITLE6=Fallon Franklin - The Preacher
TTITLE7=The Mother Truckers - Ride Me Down Easy
TTITLE8=Paige Price - Mama Don't Let Your Babies Grow Up to Be Cowboys
TTITLE9=WT Special - It's Been So Long Darling
TTITLE10=The Long Goners - LA Freeway
TTITLE11=Carter Falco - Damn It Feels Good to Be a Gangsta
EXTD=
EXTT0=
EXTT1=
EXTT2=
EXTT3=
EXTT4=
EXTT5=
EXTT6=
EXTT7=
EXTT8=
EXTT9=
EXTT10=
EXTT11=
PLAYORDER=
